<?xml version="1.0" encoding="utf-8"?>
<!-- Generator: Adobe Illustrator 15.1.0, SVG Export Plug-In . SVG Version: 6.00 Build 0)  -->
<!DOCTYPE svg PUBLIC "-//W3C//DTD SVG 1.1//EN" "http://www.w3.org/Graphics/SVG/1.1/DTD/svg11.dtd">
<svg version="1.1" id="Layer_1" xmlns="http://www.w3.org/2000/svg" xmlns:xlink="http://www.w3.org/1999/xlink" x="0px" y="0px"
	 width="60px" height="90px" viewBox="0 -15 60 90" enable-background="new 0 -15 60 90" xml:space="preserve">
<path fill="#507CBD" d="M1.947,13.225c0,15.587,12.637,28.224,28.225,28.224s28.227-12.637,28.227-28.224
	C58.398-2.363,45.76-15,30.172-15S1.947-2.363,1.947,13.225"/>
<path fill="#FFFFFF" d="M34.658,9.61h-3.209V7.505c0-0.79,0.523-0.974,0.893-0.974h2.266V3.056l-3.119-0.012
	c-3.462,0-4.25,2.591-4.25,4.25V9.61h-2.002v3.58h2.002v10.132h4.212V13.19h2.841L34.658,9.61z"/>
<polygon fill="#507CBD" points="52.013,65.403 50.65,68.186 47.585,68.582 49.799,70.797 49.231,73.806 52.013,72.386 
	54.738,73.806 54.227,70.797 56.441,68.582 53.376,68.186 "/>
<polygon fill="#507CBD" points="9.774,65.403 8.412,68.186 5.346,68.582 7.56,70.797 7.049,73.806 9.774,72.386 12.556,73.806 
	11.988,70.797 14.259,68.582 11.137,68.186 "/>
<polygon fill="#507CBD" points="20.334,65.403 18.971,68.186 15.906,68.582 18.12,70.797 17.609,73.806 20.334,72.386 
	23.116,73.806 22.548,70.797 24.763,68.582 21.696,68.186 "/>
<polygon fill="#507CBD" points="30.894,65.403 29.531,68.186 26.466,68.582 28.68,70.797 28.169,73.806 30.894,72.386 
	33.618,73.806 33.107,70.797 35.322,68.582 32.256,68.186 "/>
<polygon fill="#507CBD" points="41.453,65.403 40.091,68.186 37.025,68.582 39.239,70.797 38.672,73.806 41.453,72.386 
	44.179,73.806 43.668,70.797 45.882,68.582 42.816,68.186 "/>
<g>
	<path fill="#507CBD" d="M6.852,49.049h4.545v0.84H7.859v2.663h2.999v0.839H7.859v3.526H6.852V49.049z"/>
	<path fill="#507CBD" d="M15.55,53.223c0-0.743-0.252-1.463-1.199-1.463c-0.684,0-1.284,0.312-1.739,0.624L12.215,51.7
		c0.54-0.349,1.355-0.756,2.291-0.756c1.427,0,2.027,0.947,2.027,2.398v3.574h-0.815l-0.084-0.695H15.61
		c-0.564,0.455-1.211,0.839-1.931,0.839c-0.983,0-1.715-0.611-1.715-1.654C11.964,54.135,13.067,53.499,15.55,53.223z M13.955,56.27
		c0.563,0,1.031-0.276,1.595-0.779v-1.619c-1.955,0.239-2.615,0.719-2.615,1.463C12.935,55.993,13.379,56.27,13.955,56.27z"/>
	<path fill="#507CBD" d="M20.77,50.944c0.768,0,1.308,0.324,1.703,0.695l-0.492,0.636c-0.348-0.3-0.708-0.516-1.175-0.516
		c-1.055,0-1.823,0.911-1.823,2.255c0,1.331,0.731,2.23,1.799,2.23c0.552,0,1.02-0.275,1.367-0.588l0.444,0.648
		c-0.528,0.468-1.199,0.755-1.895,0.755c-1.547,0-2.734-1.115-2.734-3.046C17.964,52.06,19.271,50.944,20.77,50.944z"/>
	<path fill="#507CBD" d="M25.798,50.944c1.487,0,2.326,1.067,2.326,2.734c0,0.204-0.012,0.396-0.036,0.54h-3.934
		c0.072,1.259,0.828,2.051,1.943,2.051c0.552,0,1.02-0.18,1.451-0.456l0.348,0.647c-0.504,0.324-1.127,0.6-1.919,0.6
		c-1.559,0-2.794-1.139-2.794-3.046S24.467,50.944,25.798,50.944z M27.261,53.571c0-1.188-0.527-1.848-1.439-1.848
		c-0.816,0-1.559,0.672-1.679,1.848H27.261z"/>
	<path fill="#507CBD" d="M29.567,48.378h0.984v2.326l-0.023,1.056c0.527-0.468,1.174-0.815,1.822-0.815
		c1.512,0,2.314,1.163,2.314,2.962c0,1.991-1.188,3.154-2.518,3.154c-0.541,0-1.152-0.264-1.668-0.719h-0.035l-0.084,0.575h-0.792
		V48.378z M31.979,56.233c0.959,0,1.666-0.876,1.666-2.314c0-1.283-0.432-2.147-1.535-2.147c-0.492,0-1.008,0.276-1.559,0.792v3.059
		C31.066,56.065,31.594,56.233,31.979,56.233z"/>
	<path fill="#507CBD" d="M38.494,50.944c1.428,0,2.699,1.115,2.699,3.07c0,1.931-1.271,3.046-2.699,3.046s-2.699-1.115-2.699-3.046
		C35.795,52.06,37.066,50.944,38.494,50.944z M38.494,56.245c1.008,0,1.68-0.899,1.68-2.23c0-1.344-0.672-2.255-1.68-2.255
		c-0.996,0-1.68,0.911-1.68,2.255C36.814,55.346,37.498,56.245,38.494,56.245z"/>
	<path fill="#507CBD" d="M44.998,50.944c1.428,0,2.699,1.115,2.699,3.07c0,1.931-1.271,3.046-2.699,3.046s-2.699-1.115-2.699-3.046
		C42.299,52.06,43.57,50.944,44.998,50.944z M44.998,56.245c1.008,0,1.68-0.899,1.68-2.23c0-1.344-0.672-2.255-1.68-2.255
		c-0.996,0-1.68,0.911-1.68,2.255C43.318,55.346,44.002,56.245,44.998,56.245z"/>
	<path fill="#507CBD" d="M49.234,48.378h0.973v5.78h0.035l2.482-3.07h1.092l-1.955,2.339l2.219,3.49H53l-1.703-2.807l-1.09,1.271
		v1.535h-0.973V48.378z"/>
</g>
</svg>
