<?xml version="1.0" encoding="utf-8"?>
<!-- Generator: Adobe Illustrator 15.1.0, SVG Export Plug-In . SVG Version: 6.00 Build 0)  -->
<!DOCTYPE svg PUBLIC "-//W3C//DTD SVG 1.1//EN" "http://www.w3.org/Graphics/SVG/1.1/DTD/svg11.dtd">
<svg version="1.1" id="Layer_1" xmlns="http://www.w3.org/2000/svg" xmlns:xlink="http://www.w3.org/1999/xlink" x="0px" y="0px"
	 width="60px" height="90px" viewBox="0 -15 60 90" enable-background="new 0 -15 60 90" xml:space="preserve">
<path fill="#F4F4F4" d="M1.531,13.225c0,15.589,12.637,28.226,28.225,28.226S57.98,28.813,57.98,13.225
	C57.98-2.363,45.343-15,29.755-15S1.531-2.363,1.531,13.225"/>
<path fill="#E84435" d="M17.169,5.973c0.1-0.264,0.249-0.503,0.389-0.745c0.739-1.282,1.655-2.421,2.745-3.421
	c1.392-1.276,2.973-2.246,4.743-2.903c1.144-0.425,2.325-0.696,3.54-0.816c1.6-0.159,3.186-0.064,4.753,0.291
	c0.937,0.212,1.838,0.523,2.709,0.927c1.3,0.604,2.47,1.397,3.528,2.36c0.09,0.081,0.099,0.126,0.007,0.217
	c-1.267,1.26-2.53,2.524-3.794,3.787c-0.02,0.02-0.042,0.038-0.059,0.061c-0.067,0.101-0.123,0.083-0.209,0.005
	c-1.07-0.983-2.316-1.626-3.744-1.915c-1.182-0.24-2.359-0.232-3.534,0.022c-0.774,0.167-1.51,0.446-2.205,0.827
	c-1.132,0.62-2.081,1.451-2.853,2.484c-0.534,0.715-0.947,1.495-1.249,2.335c-0.015,0.043-0.021,0.091-0.057,0.126
	c-0.186-0.131-0.372-0.267-0.547-0.41c-0.349-0.287-0.709-0.56-1.062-0.841c-0.698-0.555-1.408-1.094-2.114-1.638
	C17.828,6.473,17.498,6.224,17.169,5.973"/>
<path fill="#35A752" d="M39.587,23.368c-0.542,0.522-1.144,0.969-1.778,1.371c-1.145,0.729-2.381,1.252-3.688,1.598
	c-1.052,0.277-2.119,0.434-3.207,0.488c-1.472,0.072-2.924-0.043-4.355-0.401c-2.27-0.569-4.283-1.628-6.04-3.175
	c-1.385-1.221-2.491-2.654-3.333-4.295c-0.008-0.018-0.012-0.035-0.018-0.053c0.722-0.561,1.445-1.119,2.167-1.682
	c0.564-0.438,1.127-0.878,1.692-1.316c0.283-0.22,0.569-0.437,0.854-0.654c0.171,0.432,0.338,0.865,0.557,1.272
	c0.95,1.773,2.324,3.104,4.156,3.945c1.313,0.604,2.699,0.823,4.14,0.728c0.961-0.066,1.895-0.252,2.793-0.604
	c0.49-0.191,0.955-0.436,1.396-0.723c0.039-0.023,0.082-0.045,0.123-0.065c0.034,0.038,0.064,0.081,0.104,0.11
	c0.324,0.255,0.648,0.509,0.975,0.76c0.529,0.408,1.061,0.816,1.591,1.229c0.271,0.209,0.54,0.424,0.812,0.635
	C38.879,22.813,39.232,23.092,39.587,23.368"/>
<path fill="#547EBE" d="M39.587,23.368c-0.354-0.276-0.708-0.556-1.062-0.832c-0.271-0.211-0.539-0.426-0.812-0.635
	c-0.53-0.41-1.062-0.818-1.591-1.229c-0.325-0.251-0.65-0.505-0.975-0.76c-0.039-0.029-0.069-0.072-0.104-0.11
	c0.253-0.208,0.52-0.397,0.762-0.62c0.707-0.646,1.25-1.408,1.633-2.283c0.195-0.447,0.334-0.914,0.436-1.394
	c0.029-0.14-0.01-0.154-0.133-0.154c-2.506,0.003-5.012,0.002-7.518,0.002c-0.183,0-0.184,0-0.184-0.18
	c0-1.76,0.002-3.521-0.002-5.28c0-0.133,0.031-0.173,0.17-0.173c4.415,0.004,8.831,0.003,13.246,0c0.114,0,0.164,0.025,0.185,0.145
	c0.178,1.057,0.268,2.121,0.246,3.192c-0.035,1.747-0.302,3.453-0.892,5.104c-0.707,1.978-1.795,3.707-3.332,5.146
	C39.641,23.331,39.611,23.349,39.587,23.368"/>
<path fill="#F6BA17" d="M21.88,15.249c-0.285,0.219-0.571,0.436-0.854,0.654c-0.565,0.438-1.128,0.879-1.693,1.316
	c-0.722,0.562-1.444,1.121-2.166,1.682c-0.254-0.466-0.452-0.953-0.639-1.447c-0.261-0.685-0.467-1.385-0.609-2.103
	c-0.234-1.184-0.342-2.38-0.278-3.59c0.039-0.75,0.127-1.494,0.274-2.229c0.104-0.522,0.252-1.035,0.415-1.544
	c0.2-0.626,0.449-1.23,0.729-1.823c0.032-0.067,0.073-0.129,0.11-0.194c0.329,0.251,0.659,0.501,0.987,0.753
	c0.706,0.544,1.416,1.084,2.114,1.638c0.353,0.281,0.713,0.554,1.062,0.841c0.175,0.143,0.36,0.279,0.547,0.41
	c-0.081,0.322-0.186,0.637-0.255,0.962c-0.189,0.892-0.253,1.79-0.16,2.699c0.055,0.542,0.164,1.073,0.304,1.599
	C21.801,15.001,21.859,15.12,21.88,15.249"/>
<polygon fill="#4D4D4D" points="52.054,64.387 50.691,67.169 47.626,67.565 49.84,69.78 49.272,72.789 52.054,71.369 54.779,72.789 
	54.268,69.78 56.482,67.565 53.417,67.169 "/>
<polygon fill="#4D4D4D" points="9.815,64.387 8.453,67.169 5.387,67.565 7.602,69.78 7.09,72.789 9.815,71.369 12.598,72.789 
	12.029,69.78 14.301,67.565 11.178,67.169 "/>
<polygon fill="#4D4D4D" points="20.375,64.387 19.012,67.169 15.947,67.565 18.16,69.78 17.65,72.789 20.375,71.369 23.157,72.789 
	22.589,69.78 24.804,67.565 21.737,67.169 "/>
<polygon fill="#4D4D4D" points="30.935,64.387 29.572,67.169 26.507,67.565 28.721,69.78 28.21,72.789 30.935,71.369 33.659,72.789 
	33.148,69.78 35.363,67.565 32.297,67.169 "/>
<polygon fill="#4D4D4D" points="41.494,64.387 40.132,67.169 37.066,67.565 39.28,69.78 38.713,72.789 41.494,71.369 44.22,72.789 
	43.709,69.78 45.923,67.565 42.857,67.169 "/>
<g>
	<path fill="#4D4D4D" d="M16.215,48.964c1.067,0,1.787,0.492,2.255,0.972l-0.576,0.636c-0.396-0.42-0.888-0.731-1.667-0.731
		c-1.595,0-2.615,1.223-2.615,3.178c0,1.979,0.936,3.227,2.615,3.227c0.563,0,1.115-0.18,1.427-0.468v-2.051h-1.667v-0.828h2.579
		v3.311c-0.516,0.504-1.391,0.911-2.446,0.911c-2.063,0-3.538-1.511-3.538-4.077C12.582,50.511,14.104,48.964,16.215,48.964z"/>
	<path fill="#4D4D4D" d="M22.587,51.003c1.427,0,2.699,1.115,2.699,3.07c0,1.931-1.271,3.046-2.699,3.046
		c-1.427,0-2.698-1.115-2.698-3.046C19.889,52.118,21.161,51.003,22.587,51.003z M22.587,56.304c1.008,0,1.679-0.899,1.679-2.23
		c0-1.344-0.671-2.255-1.679-2.255c-0.995,0-1.679,0.911-1.679,2.255C20.909,55.404,21.592,56.304,22.587,56.304z"/>
	<path fill="#4D4D4D" d="M29.091,51.003c1.427,0,2.699,1.115,2.699,3.07c0,1.931-1.271,3.046-2.699,3.046
		c-1.427,0-2.698-1.115-2.698-3.046C26.393,52.118,27.665,51.003,29.091,51.003z M29.091,56.304c1.008,0,1.679-0.899,1.679-2.23
		c0-1.344-0.671-2.255-1.679-2.255c-0.995,0-1.679,0.911-1.679,2.255C27.413,55.404,28.096,56.304,29.091,56.304z"/>
	<path fill="#4D4D4D" d="M33.736,56.771v-0.048c-0.287-0.18-0.516-0.491-0.516-0.947c0-0.492,0.336-0.876,0.635-1.079v-0.049
		c-0.383-0.312-0.754-0.875-0.754-1.57c0-1.271,1.006-2.075,2.193-2.075c0.324,0,0.613,0.06,0.828,0.144h2.027v0.756h-1.199
		c0.275,0.264,0.479,0.708,0.479,1.199c0,1.247-0.947,2.027-2.135,2.027c-0.287,0-0.611-0.072-0.875-0.204
		c-0.203,0.18-0.371,0.372-0.371,0.695c0,0.372,0.24,0.636,1.031,0.636h1.127c1.355,0,2.039,0.42,2.039,1.392
		c0,1.079-1.139,2.015-2.951,2.015c-1.426,0-2.41-0.563-2.41-1.571C32.885,57.6,33.209,57.132,33.736,56.771z M35.439,58.979
		c1.115,0,1.848-0.576,1.848-1.188c0-0.54-0.42-0.72-1.176-0.72h-1.008c-0.229,0-0.504-0.023-0.756-0.096
		c-0.42,0.3-0.6,0.647-0.6,0.983C33.748,58.583,34.385,58.979,35.439,58.979z M36.531,53.078c0-0.852-0.553-1.355-1.236-1.355
		s-1.234,0.504-1.234,1.355s0.562,1.391,1.234,1.391S36.531,53.93,36.531,53.078z"/>
	<path fill="#4D4D4D" d="M39.377,48.437h0.982v7.436c0,0.312,0.133,0.432,0.277,0.432c0.059,0,0.107,0,0.215-0.023l0.133,0.743
		c-0.133,0.061-0.301,0.096-0.564,0.096c-0.744,0-1.043-0.468-1.043-1.319V48.437z"/>
	<path fill="#4D4D4D" d="M44.619,51.003c1.488,0,2.328,1.067,2.328,2.734c0,0.204-0.012,0.396-0.037,0.54h-3.934
		c0.072,1.259,0.828,2.051,1.943,2.051c0.551,0,1.02-0.18,1.451-0.456l0.348,0.647c-0.504,0.324-1.127,0.6-1.92,0.6
		c-1.559,0-2.793-1.139-2.793-3.046S43.289,51.003,44.619,51.003z M46.084,53.63c0-1.188-0.529-1.848-1.439-1.848
		c-0.816,0-1.561,0.672-1.68,1.848H46.084z"/>
</g>
</svg>
