<?xml version="1.0" encoding="utf-8"?>
<!-- Generator: Adobe Illustrator 15.1.0, SVG Export Plug-In . SVG Version: 6.00 Build 0)  -->
<!DOCTYPE svg PUBLIC "-//W3C//DTD SVG 1.1//EN" "http://www.w3.org/Graphics/SVG/1.1/DTD/svg11.dtd">
<svg version="1.1" id="Layer_1" xmlns="http://www.w3.org/2000/svg" xmlns:xlink="http://www.w3.org/1999/xlink" x="0px" y="0px"
	 width="70.646px" height="90px" viewBox="-4.566 -15 70.646 90" enable-background="new -4.566 -15 70.646 90"
	 xml:space="preserve">
<g>
	<path fill="#48C0C6" d="M2.532,13.226c0,15.588,12.637,28.225,28.225,28.225c15.589,0,28.226-12.637,28.226-28.225
		C58.982-2.362,46.346-15,30.758-15C15.171-15,2.532-2.362,2.532,13.226"/>
	<path fill="#F8FBFC" d="M30.067,18.229c0-1.773-0.016-3.551,0.01-5.325c0.008-0.498-0.214-1.238,0.695-1.203
		c0.881,0.033,0.641,0.763,0.65,1.258c0.027,1.767,0.01,3.535,0.01,5.491c0.672-0.605,0.689-1.309,0.891-1.898
		c1.098-3.231,2.547-6.278,4.734-8.915c0.629-0.758,0.775-1.219,0.08-2.078c-1.09-1.343-0.916-3.006,0.174-4.278
		c1.047-1.223,2.77-1.603,4.238-0.934c1.436,0.655,2.314,2.176,2.102,3.636c-0.246,1.673-1.479,2.947-3.227,3.05
		c-0.969,0.057-1.52,0.534-2.062,1.186c-3.256,3.901-4.936,8.51-5.918,13.401c-0.426,2.115-0.602,4.279-0.936,6.413
		c-0.08,0.521,0.189,1.368-0.818,1.319c-0.895-0.045-0.603-0.787-0.654-1.271c-0.488-4.53-1.205-9.009-2.971-13.257
		c-0.813-1.956-1.793-3.816-3.048-5.522c-0.881-1.199-1.73-2.242-3.524-2.374c-1.989-0.147-3.134-2.547-2.475-4.481
		c0.687-2.016,2.923-2.984,4.871-2.109c1.91,0.859,2.883,3.22,1.653,4.836c-0.984,1.291-0.517,1.927,0.268,2.907
		c1.96,2.449,3.304,5.246,4.288,8.218c0.221,0.668,0.464,1.33,0.696,1.994C29.886,18.273,29.976,18.252,30.067,18.229"/>
	<path fill="#FAFDFF" d="M30.779,3.088c-2.015,0.017-3.676-1.567-3.671-3.5c0.004-1.923,1.713-3.576,3.671-3.551
		c1.902,0.025,3.525,1.593,3.586,3.468C34.428,1.429,32.783,3.071,30.779,3.088"/>
	<path fill="#F9FCFC" d="M30.654,4.354c1.592-0.036,2.939,1.173,3.02,2.713c0.084,1.581-1.291,2.977-2.936,2.978
		c-1.576,0.001-2.915-1.279-2.941-2.81C27.769,5.713,29.082,4.391,30.654,4.354"/>
</g>
<g>
	<polygon fill="#48C0C6" points="51.877,65.065 50.514,67.848 47.449,68.244 49.662,70.459 49.096,73.468 51.877,72.048 
		54.602,73.468 54.09,70.459 56.305,68.244 53.24,67.848 	"/>
	<polygon fill="#48C0C6" points="9.638,65.065 8.275,67.848 5.209,68.244 7.423,70.459 6.913,73.468 9.638,72.048 12.419,73.468 
		11.852,70.459 14.123,68.244 11,67.848 	"/>
	<polygon fill="#48C0C6" points="20.197,65.065 18.834,67.848 15.769,68.244 17.983,70.459 17.472,73.468 20.197,72.048 
		22.979,73.468 22.411,70.459 24.626,68.244 21.56,67.848 	"/>
	<polygon fill="#48C0C6" points="30.758,65.065 29.395,67.848 26.329,68.244 28.543,70.459 28.032,73.468 30.758,72.048 
		33.482,73.468 32.971,70.459 35.186,68.244 32.119,67.848 	"/>
	<polygon fill="#48C0C6" points="41.316,65.065 39.955,67.848 36.889,68.244 39.104,70.459 38.535,73.468 41.316,72.048 
		44.043,73.468 43.531,70.459 45.746,68.244 42.68,67.848 	"/>
</g>
<g>
	<path fill="#48C0C6" d="M-3.479,49.268h1.032l0.827,4.282c0.156,0.852,0.312,1.691,0.468,2.543h0.048
		c0.167-0.852,0.36-1.703,0.551-2.543l1.092-4.282H1.45l1.092,4.282c0.18,0.827,0.372,1.691,0.563,2.543h0.048
		c0.156-0.852,0.3-1.703,0.444-2.543l0.828-4.282h0.972l-1.631,7.868H2.554l-1.188-4.737c-0.132-0.611-0.264-1.176-0.372-1.787
		H0.947c-0.132,0.611-0.264,1.176-0.396,1.787l-1.175,4.737h-1.188L-3.479,49.268z"/>
	<path fill="#48C0C6" d="M8.819,51.163c1.487,0,2.327,1.067,2.327,2.734c0,0.204-0.012,0.396-0.036,0.54H7.176
		c0.072,1.259,0.828,2.051,1.943,2.051c0.551,0,1.019-0.18,1.451-0.456l0.348,0.647c-0.504,0.324-1.127,0.6-1.919,0.6
		c-1.559,0-2.794-1.139-2.794-3.046S7.488,51.163,8.819,51.163z M10.283,53.79c0-1.188-0.528-1.848-1.439-1.848
		c-0.816,0-1.56,0.672-1.679,1.848H10.283z"/>
	<path fill="#48C0C6" d="M14.699,51.163c0.672,0,1.115,0.252,1.631,0.672l-0.048-0.996v-2.242h0.996v8.539h-0.816l-0.084-0.684
		h-0.036c-0.456,0.443-1.079,0.827-1.763,0.827c-1.463,0-2.411-1.104-2.411-3.046C12.168,52.338,13.368,51.163,14.699,51.163z
		 M14.795,56.452c0.54,0,1.007-0.264,1.487-0.804v-3.046c-0.492-0.444-0.936-0.612-1.415-0.612c-0.936,0-1.679,0.899-1.679,2.231
		C13.188,55.612,13.776,56.452,14.795,56.452z"/>
	<path fill="#48C0C6" d="M21.359,51.163c0.671,0,1.115,0.252,1.631,0.672l-0.048-0.996v-2.242h0.995v8.539h-0.815l-0.084-0.684
		h-0.036c-0.456,0.443-1.079,0.827-1.763,0.827c-1.464,0-2.411-1.104-2.411-3.046C18.828,52.338,20.027,51.163,21.359,51.163z
		 M21.455,56.452c0.539,0,1.007-0.264,1.487-0.804v-3.046c-0.492-0.444-0.936-0.612-1.415-0.612c-0.936,0-1.68,0.899-1.68,2.231
		C19.848,55.612,20.436,56.452,21.455,56.452z"/>
	<path fill="#48C0C6" d="M25.729,49.472c0-0.384,0.3-0.636,0.684-0.636s0.684,0.252,0.684,0.636c0,0.372-0.3,0.636-0.684,0.636
		S25.729,49.844,25.729,49.472z M25.908,51.307h0.983v5.829h-0.983V51.307z"/>
	<path fill="#48C0C6" d="M28.86,51.307h0.815l0.084,0.84h0.036c0.552-0.552,1.151-0.983,1.955-0.983
		c1.224,0,1.774,0.792,1.774,2.278v3.694h-0.983v-3.562c0-1.091-0.335-1.559-1.103-1.559c-0.601,0-1.008,0.312-1.596,0.899v4.222
		H28.86V51.307z"/>
	<path fill="#48C0C6" d="M35.832,56.932v-0.048c-0.288-0.18-0.516-0.491-0.516-0.947c0-0.492,0.335-0.876,0.635-1.079v-0.049
		c-0.384-0.312-0.755-0.875-0.755-1.57c0-1.271,1.007-2.075,2.194-2.075c0.324,0,0.612,0.06,0.828,0.144h2.026v0.756h-1.199
		c0.275,0.264,0.479,0.708,0.479,1.199c0,1.247-0.947,2.027-2.135,2.027c-0.288,0-0.611-0.072-0.875-0.204
		c-0.204,0.18-0.372,0.372-0.372,0.695c0,0.372,0.24,0.636,1.031,0.636h1.128c1.354,0,2.038,0.42,2.038,1.392
		c0,1.079-1.139,2.015-2.95,2.015c-1.427,0-2.41-0.563-2.41-1.571C34.98,57.76,35.304,57.292,35.832,56.932z M37.535,59.139
		c1.115,0,1.847-0.576,1.847-1.188c0-0.54-0.42-0.72-1.176-0.72h-1.007c-0.229,0-0.504-0.023-0.756-0.096
		c-0.42,0.3-0.6,0.647-0.6,0.983C35.844,58.743,36.479,59.139,37.535,59.139z M38.626,53.238c0-0.852-0.552-1.355-1.235-1.355
		s-1.235,0.504-1.235,1.355s0.563,1.391,1.235,1.391S38.626,54.09,38.626,53.238z"/>
	<path fill="#48C0C6" d="M43.152,49.268h1.031l0.827,4.282c0.156,0.852,0.312,1.691,0.468,2.543h0.048
		c0.168-0.852,0.36-1.703,0.552-2.543l1.092-4.282h0.911l1.092,4.282c0.18,0.827,0.372,1.691,0.563,2.543h0.048
		c0.156-0.852,0.3-1.703,0.444-2.543l0.827-4.282h0.972l-1.631,7.868h-1.212l-1.188-4.737c-0.132-0.611-0.264-1.176-0.371-1.787
		h-0.049c-0.132,0.611-0.264,1.176-0.396,1.787l-1.175,4.737h-1.188L43.152,49.268z"/>
	<path fill="#48C0C6" d="M53.088,49.472c0-0.384,0.3-0.636,0.684-0.636s0.684,0.252,0.684,0.636c0,0.372-0.3,0.636-0.684,0.636
		S53.088,49.844,53.088,49.472z M53.268,51.307h0.983v5.829h-0.983V51.307z"/>
	<path fill="#48C0C6" d="M56.22,51.307h0.815l0.084,1.056h0.036c0.396-0.731,0.995-1.199,1.655-1.199
		c0.252,0,0.432,0.036,0.623,0.12l-0.191,0.863c-0.192-0.06-0.324-0.096-0.563-0.096c-0.492,0-1.08,0.359-1.476,1.343v3.742H56.22
		V51.307z"/>
	<path fill="#48C0C6" d="M62.446,51.163c1.487,0,2.327,1.067,2.327,2.734c0,0.204-0.012,0.396-0.036,0.54h-3.934
		c0.071,1.259,0.827,2.051,1.942,2.051c0.552,0,1.02-0.18,1.451-0.456l0.348,0.647c-0.503,0.324-1.127,0.6-1.919,0.6
		c-1.559,0-2.794-1.139-2.794-3.046S61.115,51.163,62.446,51.163z M63.91,53.79c0-1.188-0.528-1.848-1.439-1.848
		c-0.815,0-1.56,0.672-1.68,1.848H63.91z"/>
</g>
</svg>
