<?xml version="1.0" encoding="utf-8"?>
<!-- Generator: Adobe Illustrator 15.1.0, SVG Export Plug-In . SVG Version: 6.00 Build 0)  -->
<!DOCTYPE svg PUBLIC "-//W3C//DTD SVG 1.1//EN" "http://www.w3.org/Graphics/SVG/1.1/DTD/svg11.dtd">
<svg version="1.1" id="Layer_1" xmlns="http://www.w3.org/2000/svg" xmlns:xlink="http://www.w3.org/1999/xlink" x="0px" y="0px"
	 width="60px" height="90px" viewBox="0 -15 60 90" enable-background="new 0 -15 60 90" xml:space="preserve">
<g>
	<path fill="#F06361" d="M3.196,13.225c0,15.589,12.637,28.226,28.225,28.226c15.589,0,28.226-12.637,28.226-28.226
		C59.646-2.363,47.01-15,31.421-15C15.833-15,3.196-2.363,3.196,13.225"/>
	<path fill="#FFFFFF" d="M28.137,17.916c0.5-0.129,0.837-0.601,0.87-1.201c0.032-0.615-0.28-1.162-0.792-1.356
		c0,0-1.414-0.591-1.417-0.591c-4.851-2.046-5.069-2.127-5.314-2.13c-0.373-0.015-0.708,0.178-0.938,0.548
		c-0.488,0.801-0.694,3.323-0.526,4.997c0.06,0.554,0.158,1.013,0.299,1.287c0.195,0.381,0.524,0.607,0.899,0.621
		c0.24,0.012,0.389-0.029,4.904-1.516C26.121,18.574,28.127,17.922,28.137,17.916 M30.666,19.807
		c-0.56-0.219-1.163-0.084-1.501,0.35c0,0-0.989,1.201-0.993,1.201c-3.401,4.084-3.541,4.271-3.624,4.514
		c-0.05,0.145-0.072,0.295-0.053,0.447c0.02,0.215,0.115,0.43,0.274,0.627c0.788,0.961,4.568,2.383,5.774,2.172
		c0.421-0.078,0.724-0.318,0.854-0.682c0.078-0.232,0.089-0.393,0.101-5.244c0,0,0.012-2.145,0.013-2.166
		C31.543,20.502,31.212,20.023,30.666,19.807 M42.502,20.76c-0.191-0.147-0.34-0.205-4.85-1.721c0,0-1.979-0.668-2.006-0.682
		c-0.478-0.188-1.025-0.014-1.394,0.451c-0.381,0.477-0.438,1.102-0.135,1.578l0.797,1.326c2.679,4.448,2.884,4.764,3.076,4.918
		c0.297,0.239,0.678,0.278,1.071,0.116c1.14-0.465,3.627-3.7,3.802-4.944C42.926,21.369,42.793,20.996,42.502,20.76 M35.232,15.66
		c0,0-0.021,0.037-0.025,0.045c0.252-0.1,0.705-0.213,1.527-0.412c5.128-1.27,5.324-1.338,5.527-1.474
		c0.311-0.213,0.467-0.571,0.438-1.007c0-0.015,0.002-0.028,0-0.044c-0.131-1.287-2.339-4.638-3.425-5.181
		c-0.385-0.189-0.771-0.176-1.09,0.042c-0.197,0.133-0.344,0.331-3.088,4.172c0,0-1.242,1.729-1.258,1.745
		c-0.326,0.406-0.33,0.991-0.012,1.489C34.16,15.553,34.721,15.805,35.232,15.66 M29.986-1.577c-1.307-0.332-6.31,1.102-7.238,2.081
		c-0.297,0.317-0.408,0.71-0.319,1.055c0.145,0.308,6.345,10.283,6.345,10.283c0.917,1.519,1.665,1.284,1.909,1.206
		c0.244-0.077,0.986-0.313,0.902-2.086c-0.088-2.078-0.698-11.334-0.771-11.763C30.709-1.19,30.414-1.468,29.986-1.577"/>
</g>
<g>
	<polygon fill="#F06361" points="52.54,64.598 51.178,67.38 48.112,67.776 50.326,69.991 49.759,73 52.54,71.58 55.266,73 
		54.754,69.991 56.969,67.776 53.903,67.38 	"/>
	<polygon fill="#F06361" points="10.302,64.598 8.939,67.38 5.874,67.776 8.087,69.991 7.577,73 10.302,71.58 13.084,73 
		12.516,69.991 14.787,67.776 11.664,67.38 	"/>
	<polygon fill="#F06361" points="20.861,64.598 19.498,67.38 16.434,67.776 18.646,69.991 18.137,73 20.861,71.58 23.644,73 
		23.075,69.991 25.29,67.776 22.224,67.38 	"/>
	<polygon fill="#F06361" points="31.421,64.598 30.059,67.38 26.993,67.776 29.207,69.991 28.696,73 31.421,71.58 34.146,73 
		33.635,69.991 35.85,67.776 32.783,67.38 	"/>
	<polygon fill="#F06361" points="41.98,64.598 40.618,67.38 37.553,67.776 39.767,69.991 39.199,73 41.98,71.58 44.706,73 
		44.195,69.991 46.409,67.776 43.344,67.38 	"/>
</g>
<g>
	<path fill="#F06361" d="M23.356,52.78l-2.375-4.822h1.079l1.008,2.22c0.251,0.575,0.492,1.127,0.768,1.715h0.048
		c0.264-0.588,0.54-1.14,0.779-1.715l1.02-2.22h1.032l-2.363,4.822v3.046h-0.996V52.78z"/>
	<path fill="#F06361" d="M29.355,49.854c1.487,0,2.327,1.067,2.327,2.734c0,0.204-0.013,0.396-0.036,0.54h-3.934
		c0.072,1.259,0.828,2.051,1.943,2.051c0.551,0,1.019-0.18,1.452-0.456l0.348,0.647c-0.504,0.324-1.128,0.6-1.919,0.6
		c-1.559,0-2.794-1.139-2.794-3.046S28.024,49.854,29.355,49.854z M30.818,52.48c0-1.188-0.527-1.848-1.438-1.848
		c-0.816,0-1.56,0.672-1.679,1.848H30.818z"/>
	<path fill="#F06361" d="M33.125,47.287h0.982v7.436c0,0.312,0.133,0.432,0.276,0.432c0.06,0,0.108,0,0.216-0.023l0.132,0.743
		c-0.132,0.061-0.3,0.096-0.563,0.096c-0.744,0-1.043-0.468-1.043-1.319V47.287z"/>
	<path fill="#F06361" d="M37.168,56.318v1.967h-0.983v-8.288H37l0.084,0.672h0.036c0.528-0.443,1.175-0.815,1.858-0.815
		c1.5,0,2.303,1.163,2.303,2.975c0,1.979-1.187,3.142-2.518,3.142c-0.54,0-1.08-0.252-1.619-0.671L37.168,56.318z M38.596,55.143
		c0.959,0,1.666-0.876,1.666-2.314c0-1.283-0.432-2.147-1.535-2.147c-0.491,0-0.982,0.276-1.559,0.792v3.059
		C37.695,54.975,38.211,55.143,38.596,55.143z"/>
</g>
</svg>
